<svg width="107" height="52" viewBox="0 0 107 52" fill="none" xmlns="http://www.w3.org/2000/svg">
<path d="M93.4312 14.5228C86.9305 14.5228 81.6406 19.8416 81.6406 26.3802C81.6406 32.9188 86.9305 38.2376 93.4312 38.2376C99.9304 38.2376 105.219 32.9188 105.219 26.3802C105.219 19.8416 99.9304 14.5228 93.4312 14.5228V14.5228ZM93.4312 32.618C90.0124 32.618 87.2279 29.8167 87.2279 26.3802C87.2279 22.9422 90.0124 20.1424 93.4312 20.1424C96.847 20.1424 99.633 22.9422 99.633 26.3802C99.633 29.8182 96.8486 32.618 93.4297 32.618H93.4312ZM58.7121 23.9788L56.6504 22.9437C55.7553 22.498 55.1941 22.153 54.9684 21.898C54.7533 21.6721 54.6308 21.3735 54.6253 21.0614C54.6253 20.6614 54.8053 20.324 55.159 20.0615C55.5098 19.7867 56.0084 19.6615 56.6413 19.6615C57.7987 19.6615 59.0811 20.3607 60.4932 21.7698L63.973 18.2692C63.118 17.1035 61.9998 16.1567 60.7097 15.506C59.4365 14.8647 58.0299 14.5341 56.6047 14.5411C54.4805 14.5411 52.7268 15.1686 51.3605 16.4326C49.9957 17.6967 49.3095 19.2157 49.3095 20.9973C49.3095 23.7605 51.1165 26.0627 54.7427 27.89L56.6413 28.8442C58.2775 29.6732 59.0918 30.5174 59.0918 31.3906C59.0918 31.8639 58.8646 32.273 58.4132 32.6364C57.9618 33.0012 57.3641 33.1737 56.623 33.1737C55.9367 33.1737 55.1499 32.9371 54.2639 32.4562C53.3811 31.9831 52.5957 31.347 51.9491 30.5815L48.4876 34.3737C50.4394 36.9384 53.0425 38.2299 56.3149 38.2299C58.7746 38.2299 60.7372 37.5567 62.1919 36.2194C63.6558 34.8836 64.3878 33.2104 64.3878 31.2089C64.3878 29.7083 63.9822 28.3908 63.177 27.2718C62.3642 26.1527 60.8729 25.0627 58.7121 23.9803V23.9788ZM23.7062 35.6545V14.9946H18.1098V16.3777C16.2241 15.1643 14.0292 14.5203 11.7876 14.5228C5.28839 14.5228 0 19.8416 0 26.3802C0 32.9188 5.28839 38.2376 11.7891 38.2376C14.0038 38.2409 16.1738 37.6135 18.0458 36.4285C18.0458 36.6102 18.0366 36.7735 18.0366 36.8835C18.0366 40.3199 15.2521 43.1213 11.8348 43.1213C10.6729 43.1186 9.53531 42.7873 8.55322 42.1656L5.78551 47.0402C7.61054 48.1547 9.70621 48.7461 11.844 48.75C18.3447 48.75 23.7062 43.4297 23.7062 36.8911C23.7062 36.6377 23.723 35.8911 23.7062 35.6545V35.6545ZM11.7891 32.6165C8.37328 32.6165 5.58727 29.8167 5.58727 26.3802C5.58727 22.9422 8.37176 20.1424 11.7891 20.1424C15.2064 20.1424 17.9909 22.9422 17.9909 26.3802C17.9909 29.8167 15.2064 32.618 11.7891 32.618V32.6165ZM45.9989 14.9869H40.375V26.2596C40.3842 27.861 40.3842 30.6258 39.21 31.8074C38.6488 32.3707 38.0343 32.8806 36.7412 32.8806C35.4389 32.8806 34.8244 32.3707 34.2647 31.8074C33.089 30.6242 33.0982 27.8519 33.1058 26.2596V14.9869H27.4835V26.226C27.4652 28.5434 27.4377 32.8455 30.2588 35.7003C31.9133 37.3735 33.885 38.2284 36.732 38.2284C39.5806 38.2284 41.5507 37.3827 43.2053 35.7003C46.0264 32.8455 45.9989 28.5343 45.9806 26.226L45.9989 14.9854V14.9869ZM77.868 31.6089C77.4166 31.9539 76.3217 32.7188 75.0835 32.5463C74.071 32.4089 73.249 31.6639 73.1225 29.1724V19.8248H79.7314V14.9686H73.1225V8.66666H67.5169V9.90323H67.5078V28.4366C67.5078 31.383 68.2489 38.2284 75.0744 38.2284C78.5283 38.175 80.625 36.2926 81.5034 35.5568L81.6208 35.4652L78.2568 31.3005C78.2477 31.3082 78.0129 31.499 77.868 31.6089V31.6089Z" fill="#F45D48"/>
</svg>
