<svg width="87" height="52" viewBox="0 0 87 52" fill="none" xmlns="http://www.w3.org/2000/svg">
<g clip-path="url(#clip0_4_523)">
<path fill-rule="evenodd" clip-rule="evenodd" d="M85.9146 27.9683C85.9146 21.8588 82.9553 17.0381 77.2993 17.0381C71.6194 17.0381 68.1828 21.8588 68.1828 27.9206C68.1828 35.104 72.2399 38.7315 78.0629 38.7315C80.9029 38.7315 83.0508 38.0871 84.6736 37.1802V32.4072C83.0508 33.2186 81.1893 33.7198 78.8266 33.7198C76.5117 33.7198 74.4593 32.9084 74.1968 30.0923H85.8668C85.8668 29.782 85.9146 28.541 85.9146 27.9683ZM74.1252 25.7011C74.1252 23.0043 75.7719 21.8827 77.2754 21.8827C78.7312 21.8827 80.2824 23.0043 80.2824 25.7011H74.1252Z" fill="#635BFF"/>
<path fill-rule="evenodd" clip-rule="evenodd" d="M58.9707 17.038C56.6319 17.038 55.1284 18.1358 54.2931 18.8995L53.9829 17.4199H48.7325V45.2466L54.6988 43.9818L54.7227 37.2279C55.5818 37.8484 56.8467 38.7314 58.9468 38.7314C63.2187 38.7314 67.1087 35.2949 67.1087 27.7296C67.0848 20.8087 63.1471 17.038 58.9707 17.038ZM57.5388 33.4811C56.1307 33.4811 55.2954 32.9799 54.7227 32.3594L54.6988 23.5055C55.3193 22.8134 56.1785 22.3361 57.5388 22.3361C59.7105 22.3361 61.214 24.7703 61.214 27.8967C61.214 31.0946 59.7344 33.4811 57.5388 33.4811Z" fill="#635BFF"/>
<path fill-rule="evenodd" clip-rule="evenodd" d="M40.5228 15.6299L46.5129 14.3412V9.49661L40.5228 10.7615V15.6299Z" fill="#635BFF"/>
<path d="M46.5129 17.4437H40.5228V38.3257H46.5129V17.4437Z" fill="#635BFF"/>
<path fill-rule="evenodd" clip-rule="evenodd" d="M34.1028 19.2097L33.721 17.4437H28.5661V38.3257H34.5324V24.1737C35.9405 22.3361 38.327 22.6702 39.0668 22.9327V17.4437C38.3031 17.1573 35.5109 16.6323 34.1028 19.2097Z" fill="#635BFF"/>
<path fill-rule="evenodd" clip-rule="evenodd" d="M22.1705 12.2649L16.3474 13.5059L16.3235 32.6219C16.3235 36.1539 18.9725 38.7552 22.5046 38.7552C24.4615 38.7552 25.8934 38.3972 26.681 37.9677V33.1231C25.9173 33.4333 22.1466 34.5311 22.1466 30.9991V22.5269H26.681V17.4437H22.1466L22.1705 12.2649Z" fill="#635BFF"/>
<path fill-rule="evenodd" clip-rule="evenodd" d="M6.03788 23.5055C6.03788 22.5748 6.80156 22.2168 8.06641 22.2168C9.88016 22.2168 12.1712 22.7657 13.985 23.7442V18.1359C12.0042 17.3483 10.0472 17.0381 8.06641 17.0381C3.22179 17.0381 0 19.5678 0 23.7919C0 30.3787 9.06875 29.3286 9.06875 32.1685C9.06875 33.2663 8.11414 33.6243 6.7777 33.6243C4.79689 33.6243 2.26719 32.8129 0.262516 31.7151V37.395C2.48197 38.3496 4.7253 38.7553 6.7777 38.7553C11.7416 38.7553 15.1544 36.2972 15.1544 32.0254C15.1305 24.9135 6.03788 26.1784 6.03788 23.5055Z" fill="#635BFF"/>
</g>
<defs>
<clipPath id="clip0_4_523">
<rect width="86.6667" height="52" fill="white"/>
</clipPath>
</defs>
</svg>
