<svg width="179" height="52" viewBox="0 0 179 52" fill="none" xmlns="http://www.w3.org/2000/svg">
<g clip-path="url(#clip0_4_524)">
<path d="M55.0604 32.561C54.5458 32.6896 53.9026 32.8183 53.2594 32.8183C51.9729 32.8183 51.4583 32.0464 51.4583 30.7599V24.9709H55.0604C55.9609 24.9709 56.8614 24.3276 56.8614 23.2985C56.8614 22.2693 56.0896 21.6261 55.0604 21.6261H51.4583V19.6964C51.4583 18.5386 50.5578 17.7667 49.5286 17.7667C48.4995 17.7667 47.5989 18.6672 47.5989 19.6964V30.8886C47.5989 34.1047 49.1427 36.4204 52.7448 36.4204C53.7739 36.4204 55.189 36.2917 56.2182 35.7771C57.1187 35.3912 57.376 34.748 57.376 34.1047C57.376 33.2042 56.4755 32.3037 55.0604 32.561ZM67.925 21.1115C67.4104 20.9829 66.3812 20.8542 65.4807 20.8542C62.2646 20.8542 60.4635 22.7839 60.4635 25.7428V34.4907C60.4635 35.5198 61.364 36.4204 62.3932 36.4204C63.4224 36.4204 64.3229 35.5198 64.3229 34.4907V26.5146C64.3229 25.2282 64.8375 24.7136 65.738 24.7136C66.6385 24.7136 67.1531 24.9709 67.925 24.9709C69.0828 24.9709 69.726 23.9417 69.726 23.1698C69.5974 22.1407 69.0828 21.4974 67.925 21.1115ZM78.6026 20.8542C75.0005 20.8542 72.4276 23.1698 72.0416 26.9006C72.0416 27.8011 71.913 29.3448 72.0416 30.5026C72.2989 34.1047 74.8719 36.549 78.7312 36.549C80.5323 36.549 82.2047 36.1631 83.2338 35.5198C84.0057 35.0052 84.1344 34.4907 84.1344 33.9761C84.1344 32.9469 83.2338 31.9178 81.6901 32.4323C80.7896 32.8183 79.7604 33.0756 78.7312 33.0756C76.9302 33.0756 75.5151 32.175 75.5151 30.374V29.9881H82.8479C84.1344 29.9881 84.7776 29.2162 84.7776 28.0584V27.4151C84.9062 23.4271 82.3333 20.8542 78.6026 20.8542ZM81.0469 27.4151H75.6437C75.6437 25.4855 76.5442 24.199 78.6026 24.199C80.4036 24.199 81.4328 25.3568 81.3041 27.0292C81.3041 27.2865 81.3041 27.4151 81.0469 27.4151ZM94.0401 20.8542C90.438 20.8542 87.8651 23.1698 87.4791 26.9006C87.4791 27.8011 87.3505 29.3448 87.4791 30.5026C87.7364 34.1047 90.3094 36.549 94.1687 36.549C95.9698 36.549 97.6422 36.1631 98.6713 35.5198C99.4432 35.0052 99.5719 34.4907 99.5719 33.9761C99.5719 32.9469 98.6713 31.9178 97.1276 32.4323C96.2271 32.8183 95.1979 33.0756 94.1687 33.0756C92.3677 33.0756 90.9526 32.175 90.9526 30.374V29.9881H98.2854C99.5719 29.9881 100.215 29.2162 100.215 28.0584V27.4151C100.344 23.4271 97.7708 20.8542 94.0401 20.8542ZM96.4844 27.4151H91.0812C91.0812 25.4855 91.9818 24.199 94.0401 24.199C95.8411 24.199 96.8703 25.3568 96.7416 27.0292C96.7416 27.2865 96.7416 27.4151 96.4844 27.4151ZM159.006 27.2865L156.948 26.7719C155.661 26.5146 155.275 26.1287 155.275 25.4855C155.275 24.8422 155.919 24.3276 157.334 24.3276C158.106 24.3276 159.006 24.5849 159.778 24.9709C160.679 25.4855 161.708 25.3568 162.222 24.7136C162.866 24.0704 162.866 22.9125 162.094 22.1407C161.065 21.3688 159.264 20.8542 157.462 20.8542C154.118 20.8542 151.673 22.5266 151.673 25.6141C151.673 28.0584 153.474 29.3448 155.79 29.9881C156.948 30.2454 156.819 30.2454 157.848 30.5026C159.006 30.7599 159.521 31.2745 159.521 31.7891C159.521 32.561 158.878 33.0756 157.334 33.0756C156.047 33.0756 154.89 32.6896 153.989 32.175C153.089 31.5318 152.059 31.7891 151.545 32.561C151.03 33.3329 151.159 34.362 151.931 34.8766C152.96 35.7771 154.632 36.549 157.334 36.549C160.679 36.549 163.252 34.748 163.252 31.6605C163.252 29.3448 161.836 27.9297 159.006 27.2865ZM176.888 29.9881C178.174 29.9881 178.818 29.2162 178.818 28.0584V27.4151C178.818 23.4271 176.245 20.8542 172.514 20.8542C168.912 20.8542 166.339 23.1698 165.953 26.9006C165.953 27.8011 165.824 29.3448 165.953 30.5026C166.21 34.1047 168.783 36.549 172.643 36.549C174.444 36.549 176.116 36.1631 177.145 35.5198C177.917 35.0052 178.046 34.4907 178.046 33.9761C178.046 32.9469 177.145 31.9178 175.602 32.4323C174.701 32.8183 173.672 33.0756 172.643 33.0756C170.842 33.0756 169.427 32.175 169.427 30.374V29.9881H176.888ZM172.514 24.199C174.315 24.199 175.344 25.3568 175.216 27.0292C175.216 27.2865 175.087 27.4151 174.958 27.4151H169.555C169.555 25.4855 170.584 24.199 172.514 24.199ZM125.43 20.8542C121.57 20.8542 118.74 23.2985 118.354 26.6433C118.226 27.8011 118.226 29.6021 118.354 30.7599C118.611 34.1047 121.57 36.549 125.43 36.549C129.289 36.549 132.119 34.1047 132.377 30.7599C132.505 29.6021 132.505 27.9297 132.377 26.7719C132.119 23.2985 129.289 20.8542 125.43 20.8542ZM128.517 30.1167C128.389 31.7891 127.231 32.8183 125.43 32.8183C123.629 32.8183 122.471 31.6605 122.342 30.1167C122.342 29.3448 122.342 28.0584 122.342 27.2865C122.471 25.6141 123.629 24.5849 125.43 24.5849C127.231 24.5849 128.389 25.7428 128.517 27.2865C128.646 28.0584 128.646 29.3448 128.517 30.1167ZM110.121 20.8542C108.706 20.8542 107.162 21.3688 106.647 22.012V17.8954C106.647 16.7375 105.876 15.9657 104.846 15.9657C103.817 15.9657 103.045 16.8662 103.045 17.8954V34.4907C103.045 35.5198 103.946 36.4204 104.975 36.4204C106.004 36.4204 106.776 35.5198 106.776 34.4907V25.8714C107.419 25.2282 108.448 24.7136 109.735 24.7136C111.279 24.7136 112.179 25.6141 112.179 27.4151V34.4907C112.179 35.6485 112.951 36.549 113.98 36.549C115.138 36.549 115.91 35.6485 115.91 34.4907V27.1579C115.781 23.0412 113.723 20.8542 110.121 20.8542ZM146.142 20.9829C145.112 20.9829 144.212 21.8834 144.212 22.9125V32.0464C143.569 32.4323 142.668 32.8183 141.51 32.8183C139.967 32.8183 138.809 31.9178 138.809 30.1167V22.9125C138.809 21.7547 137.908 20.8542 136.879 20.8542C135.721 20.8542 135.078 21.7547 135.078 22.9125V30.2454C135.078 34.2334 137.394 36.4204 141.382 36.4204C144.341 36.4204 146.399 35.3912 147.299 34.748C147.814 34.4907 147.943 34.1047 147.943 33.4615V22.9125C147.943 21.8834 147.171 20.9829 146.142 20.9829Z" fill="#3E474F"/>
<path d="M33.4479 13.0069C32.0328 12.235 29.8458 13.5215 28.5594 15.8371L26.1151 19.9538C25.2146 21.6262 25.3432 23.6845 26.501 25.3569L26.6297 25.4855C27.7875 27.0293 29.2026 28.573 29.7172 29.0876C29.9745 29.3449 30.2318 29.7308 30.3604 30.2454C30.7464 31.6605 29.9745 33.2043 28.4307 33.5902C27.0156 33.9762 25.4719 33.2043 25.0859 31.6605C24.9573 31.2746 24.9573 30.8887 24.9573 30.6314C25.0859 29.9881 24.8286 29.0876 23.9281 28.0585C23.0276 27.1579 21.3552 28.959 20.712 30.76V30.8887C20.1974 32.6897 19.8115 34.3621 19.9401 34.4907C19.9401 34.6194 20.0687 34.6194 20.0687 34.748C20.8406 36.2918 20.326 38.0928 18.7823 38.8647C17.2385 39.6366 15.4375 39.122 14.6656 37.5782C13.8937 36.0345 14.4083 34.2335 15.9521 33.4616C16.0807 33.4616 16.0807 33.3329 16.2094 33.3329C16.338 33.3329 16.5953 32.5611 16.9812 31.5319C17.2385 30.6314 17.3672 30.2454 17.4958 29.8595C17.6245 29.3449 17.8818 28.0585 17.7531 27.5439C17.6245 26.9006 16.9812 26.9006 16.338 27.2866C15.9521 27.5439 15.1802 28.1871 14.9229 28.4444C14.2797 28.959 13.7651 29.7308 13.5078 30.3741C13.3792 30.6314 13.1219 31.0173 12.8646 31.2746C11.7068 32.1751 10.0344 32.0465 9.00521 30.8887C8.10469 29.7308 8.23333 28.0585 9.39115 27.0293C9.77708 26.772 10.163 26.5147 10.549 26.5147C11.1922 26.3861 13.5078 24.971 14.9229 23.9418C15.1802 23.8131 15.5661 23.4272 15.6948 23.2986C16.0807 22.784 15.6948 22.398 15.3089 22.398C14.151 22.5267 12.8646 22.6553 12.6073 23.0413C12.4786 23.1699 12.35 23.4272 12.0927 23.5558C11.0635 24.3277 9.51979 24.0704 8.74792 23.0413C7.97604 22.0121 8.23333 20.4683 9.2625 19.6965C9.64844 19.3105 10.2917 19.1819 10.6776 19.1819C11.5781 19.1819 13.8937 19.6965 15.6948 19.3105L16.2094 19.1819C18.1391 18.796 20.4547 17.1236 21.3552 15.4512C21.3552 15.4512 22.2557 13.9074 23.2849 11.9777C24.4427 10.048 24.3141 7.86105 23.1562 7.21782L20.9693 5.93137C19.8115 5.28814 18.1391 5.28814 16.9812 5.93137L2.05833 14.422C0.900521 15.0652 0 16.609 0 17.8954V34.3621C0 35.6486 0.900521 37.1923 2.05833 37.8355L16.9812 46.3262C18.1391 46.9694 19.9401 46.9694 20.9693 46.3262L35.8922 37.8355C37.05 37.1923 37.9505 35.6486 37.9505 34.3621V17.8954C37.9505 16.609 37.05 15.0652 35.8922 14.422C35.8922 14.422 34.863 13.7788 33.4479 13.0069Z" fill="#5FCF80"/>
</g>
<defs>
<clipPath id="clip0_4_524">
<rect width="178.75" height="52" fill="white"/>
</clipPath>
</defs>
</svg>
