<svg width="124" height="52" viewBox="0 0 124 52" fill="none" xmlns="http://www.w3.org/2000/svg">
<g clip-path="url(#clip0_4_525)">
<path d="M33.8979 33.6741C30.4492 33.6741 28.1662 31.0617 27.5293 30.0497C28.3465 23.648 30.7378 21.624 33.8979 21.624C37.0223 21.624 39.4496 24.0717 39.4496 27.649C39.4496 31.2264 37.0223 33.6741 33.8979 33.6741ZM33.8979 17.6936C28.2744 17.6936 25.1261 21.2827 24.2249 24.9778C23.2035 23.0949 22.4465 20.5767 21.8577 18.2349H14.0831V27.7079C14.0831 31.1441 12.4849 33.6859 9.3607 33.6859C6.23645 33.6859 4.44604 31.1441 4.44604 27.7079L4.48208 18.2349H0V27.7079C0 30.4733 0.913239 32.9799 2.5835 34.7685C4.30184 36.616 6.64501 37.581 9.3607 37.581C14.768 37.581 18.5412 33.5212 18.5412 27.7079V21.3416C19.1059 23.4362 20.4518 27.4608 23.0232 30.9911L20.62 44.3946H25.1742L26.7603 34.898C27.277 35.3216 27.8297 35.6982 28.4185 36.0395C29.9446 36.9809 31.6869 37.5104 33.4894 37.5692C33.4894 37.5692 33.7657 37.581 33.91 37.581C39.4856 37.581 43.9195 33.3565 43.9195 27.649C43.9195 21.9417 39.4735 17.6936 33.8979 17.6936Z" fill="#14A800"/>
<path d="M98.2935 20.2599V18.2359H93.8956V36.9818H98.3536V29.6388C98.3536 25.12 98.7742 21.8721 104.963 22.2957V18.0123C102.079 17.8005 99.8316 18.3888 98.2935 20.2599Z" fill="#14A800"/>
<path d="M67.3408 18.2363L64.1084 31.3455L60.6597 18.2363H54.9881L51.5273 31.3455L48.307 18.2363H43.7888L48.7396 36.9941H54.0989L57.8239 23.673L61.5128 36.9941H66.8721L72.1113 18.2363H67.3408Z" fill="#14A800"/>
<path d="M81.9287 33.6859C78.7565 33.6859 76.3773 31.2383 76.3773 27.649C76.3773 24.0599 78.7685 21.624 81.9287 21.624C85.0531 21.624 87.4804 24.0717 87.4804 27.649C87.4804 31.2264 85.0531 33.6859 81.9287 33.6859ZM81.9287 17.6936C76.3171 17.6936 71.9192 21.9535 71.9192 27.649C71.9192 33.3446 76.3171 37.5692 81.9287 37.5692C87.5043 37.5692 91.9384 33.3446 91.9384 27.649C91.9384 21.9535 87.5164 17.6936 81.9287 17.6936Z" fill="#14A800"/>
<path d="M111.356 27.7671H112.389L118.614 36.9929H123.649L116.487 26.7668C119.96 25.4371 122.291 21.9656 122.291 18.2352H117.845C117.845 22.2833 114.588 23.8131 111.356 23.8131V10.8333H106.886V36.9929H111.344L111.356 27.7671Z" fill="#14A800"/>
</g>
<defs>
<clipPath id="clip0_4_525">
<rect width="123.5" height="52" fill="white"/>
</clipPath>
</defs>
</svg>
