<svg width="48" height="48" viewBox="0 0 48 48" fill="none" xmlns="http://www.w3.org/2000/svg">
<path d="M7.68 20.16C7.68 12.0703 7.68 8.02545 9.62147 5.11983C10.462 3.86196 11.542 2.78195 12.7998 1.94147C15.7054 0 19.7503 0 27.84 0C35.9297 0 39.9746 0 42.8802 1.94147C44.138 2.78195 45.218 3.86196 46.0585 5.11983C48 8.02545 48 12.0703 48 20.16C48 28.2497 48 32.2946 46.0585 35.2002C45.218 36.458 44.138 37.538 42.8802 38.3785C39.9746 40.32 35.9297 40.32 27.84 40.32C19.7503 40.32 15.7054 40.32 12.7998 38.3785C11.542 37.538 10.462 36.458 9.62147 35.2002C7.68 32.2946 7.68 28.2497 7.68 20.16Z" fill="#553B33"/>
<path d="M0 23.04C0 15.7992 0 12.1788 2.24942 9.92942C4.49884 7.68 8.11923 7.68 15.36 7.68H24.96C32.2008 7.68 35.8212 7.68 38.0706 9.92942C40.32 12.1788 40.32 15.7992 40.32 23.04V32.64C40.32 39.8808 40.32 43.5012 38.0706 45.7506C35.8212 48 32.2008 48 24.96 48H15.36C8.11923 48 4.49884 48 2.24942 45.7506C0 43.5012 0 39.8808 0 32.64V23.04Z" fill="#2F241F"/>
</svg>
